<svg xmlns="http://www.w3.org/2000/svg" xmlns:xlink="http://www.w3.org/1999/xlink" width="25" height="25" viewBox="0 0 25 25">
  <defs>
    <clipPath id="clip-path">
      <rect id="Rectángulo_100" data-name="Rectángulo 100" width="25" height="25" transform="translate(23 212)" fill="#fff" stroke="#707070" stroke-width="1"/>
    </clipPath>
  </defs>
  <g id="Enmascarar_grupo_29" data-name="Enmascarar grupo 29" transform="translate(-23 -212)" clip-path="url(#clip-path)">
    <g id="usuario_3_" data-name="usuario (3)" transform="translate(25.1 212)">
      <path id="Trazado_289" data-name="Trazado 289" d="M13.415,12.043a5.949,5.949,0,0,0,4.317-1.764A5.786,5.786,0,0,0,19.52,6.021a5.787,5.787,0,0,0-1.789-4.257A5.95,5.95,0,0,0,13.415,0,5.949,5.949,0,0,0,9.1,1.764,5.786,5.786,0,0,0,7.309,6.021,5.786,5.786,0,0,0,9.1,10.279,5.95,5.95,0,0,0,13.415,12.043Zm0,0" transform="translate(-3 0)"/>
      <path id="Trazado_290" data-name="Trazado 290" d="M21.1,27.918a14.679,14.679,0,0,0-.205-1.58A12.3,12.3,0,0,0,20.5,24.75a7.79,7.79,0,0,0-.662-1.481,5.6,5.6,0,0,0-1-1.283A4.41,4.41,0,0,0,17.4,21.1a5.017,5.017,0,0,0-1.831-.327,1.873,1.873,0,0,0-.992.415c-.3.191-.645.413-1.034.657a5.965,5.965,0,0,1-1.337.581,5.262,5.262,0,0,1-3.272,0A5.951,5.951,0,0,1,7.6,21.843c-.385-.242-.733-.464-1.035-.658a1.87,1.87,0,0,0-.992-.415,5.011,5.011,0,0,0-1.83.327,4.407,4.407,0,0,0-1.434.889,5.6,5.6,0,0,0-1,1.283A7.806,7.806,0,0,0,.65,24.751a12.334,12.334,0,0,0-.394,1.588,14.627,14.627,0,0,0-.205,1.58C.017,28.4,0,28.894,0,29.4a4.121,4.121,0,0,0,1.25,3.141,4.537,4.537,0,0,0,3.221,1.159H16.677A4.536,4.536,0,0,0,19.9,32.536a4.12,4.12,0,0,0,1.25-3.141c0-.5-.017-1-.051-1.477Zm0,0" transform="translate(0 -8.695)"/>
    </g>
  </g>
</svg>
