<svg xmlns="http://www.w3.org/2000/svg" xmlns:xlink="http://www.w3.org/1999/xlink" width="30" height="30" viewBox="0 0 30 30">
  <defs>
    <clipPath id="clip-path">
      <rect id="Rectángulo_101" data-name="Rectángulo 101" width="30" height="30" transform="translate(23 280)" fill="#fff" stroke="#707070" stroke-width="1"/>
    </clipPath>
  </defs>
  <g id="Enmascarar_grupo_31" data-name="Enmascarar grupo 31" transform="translate(-23 -280)" clip-path="url(#clip-path)">
    <path id="bolsa-de-la-compra_1_" data-name="bolsa-de-la-compra (1)" d="M27.584,27.28,26.061,10.03a2.486,2.486,0,0,0-2.49-2.28.544.544,0,0,0-.544.544v2.689a.511.511,0,0,1-.467.516.5.5,0,0,1-.533-.5V5.188a5.187,5.187,0,1,0-10.375,0V7.75H10.109a2.486,2.486,0,0,0-2.49,2.28L6.1,27.28A2.5,2.5,0,0,0,8.587,30H25.093A2.5,2.5,0,0,0,27.584,27.28Zm-13.619-.593H10.34a.5.5,0,0,1,0-1h3.625a.5.5,0,1,1,0,1Zm0-2.5H10.34a.5.5,0,1,1,0-1h3.625a.5.5,0,1,1,0,1ZM21.028,7.75H14.2a.544.544,0,0,0-.544.544v2.689a.511.511,0,0,1-.467.516.5.5,0,0,1-.533-.5V5.188a4.187,4.187,0,1,1,8.375,0Z" transform="translate(21.16 280)"/>
  </g>
</svg>
