<svg xmlns="http://www.w3.org/2000/svg" xmlns:xlink="http://www.w3.org/1999/xlink" width="26" height="25" viewBox="0 0 26 25">
  <defs>
    <clipPath id="clip-path">
      <rect id="Rectángulo_104" data-name="Rectángulo 104" width="26" height="25" transform="translate(23 484)" fill="#fff" stroke="#707070" stroke-width="1"/>
    </clipPath>
  </defs>
  <g id="Enmascarar_grupo_30" data-name="Enmascarar grupo 30" transform="translate(-23 -484)" clip-path="url(#clip-path)">
    <g id="cerrar-sesion" transform="translate(23.001 484)">
      <g id="Grupo_89" data-name="Grupo 89" transform="translate(0)">
        <g id="Grupo_88" data-name="Grupo 88">
          <path id="Trazado_291" data-name="Trazado 291" d="M35.648,16.31a1.052,1.052,0,0,0-.231-.34l-3.193-3.124a1.082,1.082,0,0,0-1.505,0,1.025,1.025,0,0,0,0,1.473L32.1,15.667H26.149a1.042,1.042,0,1,0,0,2.083H32.1L30.719,19.1a1.025,1.025,0,0,0,0,1.473,1.081,1.081,0,0,0,1.505,0l3.193-3.124a1.03,1.03,0,0,0,.231-1.135Z" transform="translate(-10.18 -5.25)"/>
          <path id="Trazado_292" data-name="Trazado 292" d="M18.1,14.583a1.053,1.053,0,0,0-1.065,1.042v5.208H12.776V4.167a1.046,1.046,0,0,0-.759-1L8.32,2.083h8.715V7.292a1.065,1.065,0,0,0,2.129,0V1.042A1.053,1.053,0,0,0,18.1,0H1.066a.968.968,0,0,0-.11.02A1.068,1.068,0,0,0,.5.174C.481.189.453.19.43.206S.418.224.41.23A1.038,1.038,0,0,0,.127.559.838.838,0,0,0,.1.647.973.973,0,0,0,.013.891a.635.635,0,0,0,0,.091C.015,1,0,1.021,0,1.042V21.875A1.047,1.047,0,0,0,.857,22.9L11.5,24.979a1.012,1.012,0,0,0,.209.021,1.078,1.078,0,0,0,.675-.236,1.034,1.034,0,0,0,.39-.805V22.917H18.1a1.053,1.053,0,0,0,1.065-1.042v-6.25A1.053,1.053,0,0,0,18.1,14.583Z" transform="translate(-0.001)"/>
        </g>
      </g>
    </g>
  </g>
</svg>
