<svg xmlns="http://www.w3.org/2000/svg" xmlns:xlink="http://www.w3.org/1999/xlink" width="22" height="22" viewBox="0 0 22 22">
  <defs>
    <clipPath id="clip-path">
      <rect id="Rectángulo_29" data-name="Rectángulo 29" width="22" height="22" fill="#fff" stroke="#707070" stroke-width="1"/>
    </clipPath>
  </defs>
  <g id="Enmascarar_grupo_5" data-name="Enmascarar grupo 5" clip-path="url(#clip-path)">
    <g id="correo" transform="translate(0 1.392)">
      <g id="Grupo_27" data-name="Grupo 27">
        <g id="Grupo_26" data-name="Grupo 26">
          <path id="Trazado_198" data-name="Trazado 198" d="M21.9,7.561l-3.186-2.25V2.024a.708.708,0,0,0-.607-.632H4.147a.708.708,0,0,0-.607.632V5.286L.228,7.561a.556.556,0,0,0-.228.4v12.01a.733.733,0,0,0,.632.632H21.619c.278,0,.379-.329.379-.632V7.966C22,7.814,22.023,7.662,21.9,7.561ZM18.711,6.525l2.175,1.492L18.711,9.66ZM4.551,2.4H17.7v8.041L11.125,15.4,4.551,10.444V2.4ZM3.54,6.5V9.685L1.365,8.016ZM1.011,9.053l7.08,5.36-7.08,4.779ZM2.225,19.6l6.726-4.526,1.8,1.365a.607.607,0,0,0,.354.126c.1,0,.152-.051.253-.126l1.871-1.441,6.8,4.6Zm18.761-.582-6.928-4.652,6.928-5.31Z" transform="translate(0 -1.392)"/>
          <path id="Trazado_199" data-name="Trazado 199" d="M7.08,5.69H9.355a.506.506,0,0,0,0-1.011H7.08a.506.506,0,1,0,0,1.011Z" transform="translate(0 -1.392)"/>
          <path id="Trazado_200" data-name="Trazado 200" d="M7.08,7.966h8.091a.506.506,0,0,0,0-1.011H7.08a.506.506,0,0,0,0,1.011Z" transform="translate(0 -1.392)"/>
          <path id="Trazado_201" data-name="Trazado 201" d="M15.677,9.736a.506.506,0,0,0-.506-.506H7.08a.506.506,0,1,0,0,1.011h8.091A.506.506,0,0,0,15.677,9.736Z" transform="translate(0 -1.392)"/>
        </g>
      </g>
    </g>
  </g>
</svg>
