<svg xmlns="http://www.w3.org/2000/svg" xmlns:xlink="http://www.w3.org/1999/xlink" width="28" height="18" viewBox="0 0 28 18">
  <defs>
    <clipPath id="clip-path">
      <rect id="Rectángulo_95" data-name="Rectángulo 95" width="28" height="18" transform="translate(0 -0.032)" fill="#fff" stroke="#707070" stroke-width="1"/>
    </clipPath>
  </defs>
  <g id="Enmascarar_grupo_25" data-name="Enmascarar grupo 25" transform="translate(0 0.032)" clip-path="url(#clip-path)">
    <g id="Invoice" transform="translate(5.29 0)">
      <path id="Trazado_266" data-name="Trazado 266" d="M22.21.435H5.661c-.241,0-.435.13-.435.291V18.187c0,.112.1.214.247.262a.617.617,0,0,0,.461-.035l1.946-1.04,2.791,1.066a.628.628,0,0,0,.432,0l2.832-1.082,2.832,1.082a.628.628,0,0,0,.432,0l2.791-1.066,1.946,1.04a.617.617,0,0,0,.461.035c.151-.048.247-.15.247-.262V.726C22.645.566,22.45.435,22.21.435Zm-.435,17.146L20.3,16.8a.617.617,0,0,0-.488-.025l-2.832,1.082-2.832-1.082a.628.628,0,0,0-.432,0l-2.832,1.082L8.055,16.771a.617.617,0,0,0-.488.025l-1.47.786V1.018H21.774Z" transform="translate(-5.226 -0.435)"/>
      <path id="Trazado_267" data-name="Trazado 267" d="M8.71,3.63H19.161c.241,0,.435-.13.435-.291s-.195-.291-.435-.291H8.71c-.241,0-.435.13-.435.291S8.469,3.63,8.71,3.63Z" transform="translate(-5.226 -1.302)"/>
      <path id="Trazado_268" data-name="Trazado 268" d="M8.71,5.372H19.161c.241,0,.435-.13.435-.291s-.195-.291-.435-.291H8.71c-.241,0-.435.13-.435.291S8.469,5.372,8.71,5.372Z" transform="translate(-5.226 -1.88)"/>
      <path id="Trazado_269" data-name="Trazado 269" d="M8.71,7.114h6.968c.241,0,.435-.13.435-.291s-.195-.291-.435-.291H8.71c-.241,0-.435.13-.435.291S8.469,7.114,8.71,7.114Z" transform="translate(-5.226 -2.458)"/>
      <path id="Trazado_270" data-name="Trazado 270" d="M17.419,6.532h-.435c-.241,0-.435.13-.435.291s.195.291.435.291h.435c.241,0,.435-.13.435-.291S17.66,6.532,17.419,6.532Z" transform="translate(-5.226 -2.458)"/>
    </g>
  </g>
</svg>
