<svg xmlns="http://www.w3.org/2000/svg" xmlns:xlink="http://www.w3.org/1999/xlink" width="27" height="25" viewBox="0 0 27 25">
  <defs>
    <clipPath id="clip-path">
      <rect id="Rectángulo_142" data-name="Rectángulo 142" width="27" height="25" transform="translate(26 422)" fill="#fff" stroke="#707070" stroke-width="1"/>
    </clipPath>
  </defs>
  <g id="Enmascarar_grupo_51" data-name="Enmascarar grupo 51" transform="translate(-26 -422)" clip-path="url(#clip-path)">
    <g id="tienda" transform="translate(27 422)">
      <g id="Grupo_178" data-name="Grupo 178">
        <g id="Grupo_177" data-name="Grupo 177">
          <path id="Trazado_428" data-name="Trazado 428" d="M17.857,10.695a4.525,4.525,0,0,1-5.357,0,4.525,4.525,0,0,1-5.357,0,4.387,4.387,0,0,1-5.357,0V22.321A2.679,2.679,0,0,0,4.464,25H8.929V15.179a.893.893,0,0,1,.893-.893h5.357a.893.893,0,0,1,.893.893V25h4.464a2.679,2.679,0,0,0,2.679-2.679V10.695A4.387,4.387,0,0,1,17.857,10.695Z"/>
        </g>
      </g>
      <g id="Grupo_180" data-name="Grupo 180">
        <g id="Grupo_179" data-name="Grupo 179">
          <path id="Trazado_429" data-name="Trazado 429" d="M1.786,7.143A2.679,2.679,0,0,0,4.464,9.821a2.638,2.638,0,0,0,2.006-.927.923.923,0,0,1,1.305-.04l.04.04a2.694,2.694,0,0,0,4.013,0,.923.923,0,0,1,1.305-.04l.04.04a2.694,2.694,0,0,0,4.013,0,.923.923,0,0,1,1.305-.04l.04.04a2.638,2.638,0,0,0,2.006.927,2.679,2.679,0,0,0,2.679-2.679Z"/>
        </g>
      </g>
      <g id="Grupo_182" data-name="Grupo 182">
        <g id="Grupo_181" data-name="Grupo 181">
          <path id="Trazado_430" data-name="Trazado 430" d="M2.679,0a.893.893,0,0,0-.847.611L.249,5.357h6V0Z"/>
        </g>
      </g>
      <g id="Grupo_184" data-name="Grupo 184">
        <g id="Grupo_183" data-name="Grupo 183">
          <rect id="Rectángulo_143" data-name="Rectángulo 143" width="3.571" height="5.357" transform="translate(8.036)"/>
        </g>
      </g>
      <g id="Grupo_186" data-name="Grupo 186">
        <g id="Grupo_185" data-name="Grupo 185">
          <path id="Trazado_431" data-name="Trazado 431" d="M23.169.611A.893.893,0,0,0,22.321,0H18.75V5.357h6Z"/>
        </g>
      </g>
      <g id="Grupo_188" data-name="Grupo 188">
        <g id="Grupo_187" data-name="Grupo 187">
          <rect id="Rectángulo_144" data-name="Rectángulo 144" width="3.571" height="5.357" transform="translate(13.393)"/>
        </g>
      </g>
    </g>
  </g>
</svg>
