<svg xmlns="http://www.w3.org/2000/svg" xmlns:xlink="http://www.w3.org/1999/xlink" width="24" height="23" viewBox="0 0 24 23">
  <defs>
    <clipPath id="clip-path">
      <rect id="Rectángulo_34" data-name="Rectángulo 34" width="24" height="23" transform="translate(286 10)" fill="#fff" stroke="#707070" stroke-width="1"/>
    </clipPath>
  </defs>
  <g id="Enmascarar_grupo_8" data-name="Enmascarar grupo 8" transform="translate(-286 -10)" clip-path="url(#clip-path)">
    <g id="usuario" transform="translate(286.5 10)">
      <g id="Grupo_36" data-name="Grupo 36">
        <g id="Grupo_35" data-name="Grupo 35">
          <path id="Trazado_205" data-name="Trazado 205" d="M11.5,0a6.064,6.064,0,1,0,6.064,6.064A6.071,6.071,0,0,0,11.5,0Zm0,10.781a4.717,4.717,0,1,1,4.717-4.717A4.722,4.722,0,0,1,11.5,10.781Z"/>
        </g>
      </g>
      <g id="Grupo_38" data-name="Grupo 38">
        <g id="Grupo_37" data-name="Grupo 37">
          <path id="Trazado_206" data-name="Trazado 206" d="M13.379,13.521H9.621a9.74,9.74,0,0,0-8.228,4.513V23H21.607V18.034A9.742,9.742,0,0,0,13.379,13.521Zm6.881,8.131H2.74V18.447a8.387,8.387,0,0,1,6.881-3.577h3.758a8.387,8.387,0,0,1,6.881,3.577Z"/>
        </g>
      </g>
    </g>
  </g>
</svg>
