<svg xmlns="http://www.w3.org/2000/svg" xmlns:xlink="http://www.w3.org/1999/xlink" width="25" height="28" viewBox="0 0 25 28">
  <defs>
    <clipPath id="clip-path">
      <rect id="Rectángulo_30" data-name="Rectángulo 30" width="25" height="28" fill="#fff" stroke="#707070" stroke-width="1"/>
    </clipPath>
  </defs>
  <g id="Enmascarar_grupo_6" data-name="Enmascarar grupo 6" clip-path="url(#clip-path)">
    <g id="ojo" transform="translate(-0.077 5.095)">
      <g id="Grupo_29" data-name="Grupo 29">
        <g id="Grupo_28" data-name="Grupo 28">
          <path id="Trazado_202" data-name="Trazado 202" d="M24.918,12.4c-.224-.343-5.562-8.408-12.379-8.408S.383,12.054.159,12.4a1.019,1.019,0,0,0,0,1.093c.224.343,5.562,8.408,12.379,8.408s12.155-8.065,12.379-8.408A1.017,1.017,0,0,0,24.918,12.4ZM12.539,20.046c-5.022,0-9.371-5.353-10.659-7.1,1.286-1.751,5.626-7.1,10.659-7.1s9.371,5.352,10.659,7.1C21.911,14.7,17.571,20.046,12.539,20.046Z" transform="translate(0 -3.989)"/>
        </g>
      </g>
      <g id="Grupo_31" data-name="Grupo 31" transform="translate(7.578 3.397)">
        <g id="Grupo_30" data-name="Grupo 30">
          <path id="Trazado_203" data-name="Trazado 203" d="M11.609,6.648c-2.735,0-4.96,2.493-4.96,5.558s2.225,5.558,4.96,5.558,4.96-2.493,4.96-5.558S14.344,6.648,11.609,6.648Zm0,9.264A3.527,3.527,0,0,1,8.3,12.206,3.527,3.527,0,0,1,11.609,8.5a3.527,3.527,0,0,1,3.307,3.705A3.527,3.527,0,0,1,11.609,15.912Z" transform="translate(-6.648 -6.648)"/>
        </g>
      </g>
    </g>
  </g>
</svg>
